<?xml version="1.0" encoding="utf-8"?>
<!-- Generator: Adobe Illustrator 16.0.0, SVG Export Plug-In . SVG Version: 6.00 Build 0)  -->
<!DOCTYPE svg PUBLIC "-//W3C//DTD SVG 1.1//EN" "http://www.w3.org/Graphics/SVG/1.1/DTD/svg11.dtd">
<svg version="1.1" id="icons" xmlns="http://www.w3.org/2000/svg" xmlns:xlink="http://www.w3.org/1999/xlink" x="0px" y="0px"
	 width="64px" height="64px" viewBox="0 0 64 64" enable-background="new 0 0 64 64" xml:space="preserve">
<g>
	<path fill="#656D78" d="M50.969,20.011H4.008v39.99h40.961h5.019l0,0h0.001c0.553,0,1-0.447,1-1v-38.99H50.969z"/>
	<path fill="#545C66" d="M1.019,20.011v2v4v32.99c0,0.553,0.446,0.999,0.999,1l0,0h1.99v-39.99H1.019z"/>
	<path fill="#434A54" d="M56.975,14.005H10.014v39.99h40.961h5.019l0,0h0.001c0.553,0,1-0.447,1-1v-38.99H56.975z"/>
	<path fill="#353B44" d="M7.024,14.005v2v4v32.99c0,0.553,0.446,0.999,0.999,1l0,0h1.99v-39.99H7.024z"/>
	<path fill="#656D78" d="M62.98,7.999H16.02v39.99H56.98h5.019l0,0H62c0.553,0,1-0.447,1-1V7.999H62.98z"/>
	<path fill="#AAB2BD" d="M1,17.999c0-1.11,0.89-2,2-2h4.01v4H7H4H1.01H1V17.999z"/>
	<path fill="#AAB2BD" d="M6.99,11.999c0-1.1,0.899-2,2-2h4.04v4h-0.04H10H7.01H6.99V11.999z"/>
	<path fill="#AAB2BD" d="M62.98,5.999v2H16.02H13.03H13.01v-2c0-1.11,0.9-2,2-2H60.98C62.09,3.999,62.98,4.889,62.98,5.999z"/>
	<g>
		<path fill="#CCD1D9" d="M10.023,13.003c-0.553,0-1.005-0.447-1.005-1s0.442-1,0.994-1h0.011c0.552,0,1,0.447,1,1
			S10.575,13.003,10.023,13.003z"/>
	</g>
	<g>
		<path fill="#CCD1D9" d="M4.029,18.997c-0.553,0-1.005-0.447-1.005-1s0.442-1,0.994-1h0.011c0.552,0,1,0.447,1,1
			S4.581,18.997,4.029,18.997z"/>
	</g>
	<g>
		<g>
			<path fill="#CCD1D9" d="M16.046,6.997c-0.553,0-1.005-0.447-1.005-1s0.442-1,0.994-1h0.011c0.552,0,1,0.447,1,1
				S16.598,6.997,16.046,6.997z"/>
		</g>
		<g>
			<path fill="#CCD1D9" d="M19.046,6.997c-0.553,0-1.005-0.447-1.005-1s0.442-1,0.994-1h0.011c0.552,0,1,0.447,1,1
				S19.598,6.997,19.046,6.997z"/>
		</g>
		<g>
			<path fill="#CCD1D9" d="M22.046,6.997c-0.553,0-1.005-0.447-1.005-1s0.442-1,0.994-1h0.011c0.552,0,1,0.447,1,1
				S22.598,6.997,22.046,6.997z"/>
		</g>
	</g>
	<g>
		<path fill="#5D9CEC" d="M39.021,12.993H20.02c-0.553,0-1-0.447-1-1s0.447-1,1-1h19.002c0.553,0,1,0.447,1,1
			S39.574,12.993,39.021,12.993z"/>
	</g>
	<g>
		<path fill="#A0D468" d="M42.021,16.993H22.02c-0.553,0-1-0.447-1-1s0.447-1,1-1h20.002c0.553,0,1,0.447,1,1
			S42.574,16.993,42.021,16.993z"/>
	</g>
	<g>
		<path fill="#A0D468" d="M36.023,41.009H22.02c-0.553,0-1-0.447-1-1s0.447-1,1-1h14.004c0.553,0,1,0.447,1,1
			S36.576,41.009,36.023,41.009z"/>
	</g>
	<g>
		<path fill="#A0D468" d="M48.021,16.993h-2c-0.553,0-1-0.447-1-1s0.447-1,1-1h2c0.553,0,1,0.447,1,1S48.574,16.993,48.021,16.993z"
			/>
	</g>
	<g>
		<path fill="#5D9CEC" d="M26.02,44.997h-6c-0.553,0-1-0.447-1-1s0.447-1,1-1h6c0.553,0,1,0.447,1,1S26.572,44.997,26.02,44.997z"/>
	</g>
	<g>
		<path fill="#ED5565" d="M28.02,20.993h-4c-0.553,0-1-0.447-1-1s0.447-1,1-1h4c0.553,0,1,0.447,1,1S28.572,20.993,28.02,20.993z"/>
	</g>
	<g>
		<path fill="#ED5565" d="M53.021,20.993H32.02c-0.553,0-1-0.447-1-1s0.447-1,1-1h21.002c0.553,0,1,0.447,1,1
			S53.574,20.993,53.021,20.993z"/>
	</g>
	<g>
		<path fill="#FFCE54" d="M47.523,24.993H24.521c-0.553,0-1-0.447-1-1s0.447-1,1-1h23.002c0.553,0,1,0.447,1,1
			S48.076,24.993,47.523,24.993z"/>
	</g>
	<g>
		<path fill="#E6E9ED" d="M37.021,28.993H24.02c-0.553,0-1-0.447-1-1s0.447-1,1-1h13.002c0.553,0,1,0.447,1,1
			S37.574,28.993,37.021,28.993z"/>
	</g>
	<g>
		<path fill="#ED5565" d="M46.03,37.001H24.02c-0.553,0-1-0.447-1-1s0.447-1,1-1H46.03c0.553,0,1,0.447,1,1
			S46.583,37.001,46.03,37.001z"/>
	</g>
	<g>
		<path fill="#FFCE54" d="M49.525,32.993H31.522c-0.553,0-1-0.447-1-1s0.447-1,1-1h18.003c0.553,0,1,0.447,1,1
			S50.078,32.993,49.525,32.993z"/>
	</g>
	<g>
		<path fill="#FFCE54" d="M27.522,32.993h-3.001c-0.553,0-1-0.447-1-1s0.447-1,1-1h3.001c0.553,0,1,0.447,1,1
			S28.075,32.993,27.522,32.993z"/>
	</g>
	<g>
		<path fill="#FFCE54" d="M55.021,24.993h-4c-0.553,0-1-0.447-1-1s0.447-1,1-1h4c0.553,0,1,0.447,1,1S55.574,24.993,55.021,24.993z"
			/>
	</g>
	<path fill="#545C66" d="M13.03,7.999v2v4v32.99c0,0.553,0.446,0.999,0.999,1l0,0h1.99V7.999H13.03z"/>
</g>
</svg>
